<?xml version="1.0" encoding="UTF-8" standalone="no"?>
<!-- Created with Inkscape (http://www.inkscape.org/) -->

<svg
   xmlns:dc="http://purl.org/dc/elements/1.1/"
   xmlns:cc="http://creativecommons.org/ns#"
   xmlns:rdf="http://www.w3.org/1999/02/22-rdf-syntax-ns#"
   xmlns:svg="http://www.w3.org/2000/svg"
   xmlns="http://www.w3.org/2000/svg"
   xmlns:sodipodi="http://sodipodi.sourceforge.net/DTD/sodipodi-0.dtd"
   xmlns:inkscape="http://www.inkscape.org/namespaces/inkscape"
   width="339.47104"
   height="365.185"
   viewBox="0 0 339.47104 365.185"
   id="svg2"
   version="1.1"
   inkscape:version="0.91 r13725"
   sodipodi:docname="Logo Short Fall 2016.svg">
  <defs
     id="defs4">
    <inkscape:perspective
       sodipodi:type="inkscape:persp3d"
       inkscape:vp_x="0 : 382.49999 : 1"
       inkscape:vp_y="0 : 1000.0001 : 0"
       inkscape:vp_z="989.99998 : 382.50003 : 1"
       inkscape:persp3d-origin="494.99999 : 255 : 1"
       id="perspective4269" />
  </defs>
  <sodipodi:namedview
     id="base"
     pagecolor="#ffffff"
     bordercolor="#666666"
     borderopacity="0"
     inkscape:pageopacity="0.0"
     inkscape:pageshadow="2"
     inkscape:zoom="1.28"
     inkscape:cx="-256.66399"
     inkscape:cy="179.69703"
     inkscape:document-units="px"
     inkscape:current-layer="layer1"
     showgrid="true"
     inkscape:showpageshadow="false"
     inkscape:window-width="1920"
     inkscape:window-height="1024"
     inkscape:window-x="0"
     inkscape:window-y="30"
     inkscape:window-maximized="1"
     units="px"
     showguides="false"
     fit-margin-top="0"
     fit-margin-left="0"
     fit-margin-right="0"
     fit-margin-bottom="0">
    <inkscape:grid
       type="xygrid"
       id="grid4257"
       originx="463.06506"
       originy="-16692.432" />
  </sodipodi:namedview>
  <metadata
     id="metadata7">
    <rdf:RDF>
      <cc:Work
         rdf:about="">
        <dc:format>image/svg+xml</dc:format>
        <dc:type
           rdf:resource="http://purl.org/dc/dcmitype/StillImage" />
        <dc:title />
        <cc:license
           rdf:resource="https://creativecommons.org/licenses/by-sa/4.0/" />
      </cc:Work>
    </rdf:RDF>
  </metadata>
  <g
     inkscape:label="Layer 1"
     inkscape:groupmode="layer"
     id="layer1"
     transform="translate(463.06508,16535.631)">
    <text
       xml:space="preserve"
       style="font-style:normal;font-variant:normal;font-weight:normal;font-stretch:normal;font-size:12.5px;line-height:125%;font-family:sans-serif;-inkscape-font-specification:sans-serif;letter-spacing:0px;word-spacing:0px;fill:#000000;fill-opacity:1;stroke:none;stroke-width:1px;stroke-linecap:butt;stroke-linejoin:miter;stroke-opacity:1"
       x="-23.478155"
       y="-16144.144"
       id="text4680"
       sodipodi:linespacing="125%"><tspan
         sodipodi:role="line"
         id="tspan4682"
         x="-23.478155"
         y="-16144.144" /></text>
    <flowRoot
       xml:space="preserve"
       id="flowRoot4236"
       style="font-style:normal;font-weight:normal;font-size:12.5px;line-height:125%;font-family:Courier;letter-spacing:0px;word-spacing:0px;fill:#000000;fill-opacity:1;stroke:none;stroke-width:1px;stroke-linecap:butt;stroke-linejoin:miter;stroke-opacity:1"
       transform="translate(0,287.36221)"><flowRegion
         id="flowRegion4238"><rect
           id="rect4240"
           width="111.59029"
           height="81.759224"
           x="-884.98834"
           y="-16597.785" /></flowRegion><flowPara
         id="flowPara4242" /></flowRoot>    <path
       style="color:#000000;clip-rule:nonzero;display:inline;overflow:visible;visibility:visible;opacity:1;isolation:auto;mix-blend-mode:normal;color-interpolation:sRGB;color-interpolation-filters:linearRGB;solid-color:#000000;solid-opacity:1;fill:#ff900c;fill-opacity:1;fill-rule:evenodd;stroke:#000000;stroke-width:0;stroke-linecap:butt;stroke-linejoin:miter;stroke-miterlimit:4;stroke-dasharray:none;stroke-dashoffset:0;stroke-opacity:1;color-rendering:auto;image-rendering:auto;shape-rendering:auto;text-rendering:auto;enable-background:accumulate"
       d="m -284.27948,-16535.631 a 99.489709,99.489632 0 0 0 -69.46099,94.816 99.489709,99.489632 0 0 0 99.48836,99.49 99.489709,99.489632 0 0 0 99.49031,-99.49 99.489709,99.489632 0 0 0 -69.461,-94.728 l 0,33.248 c 5.38045,2.948 10.2146,6.81 14.49025,11.609 11.09202,12.39 16.63674,29.03 16.63674,49.916 0,20.827 -5.54472,37.465 -16.63674,49.914 -11.092,12.39 -25.9037,18.586 -44.42972,18.586 -18.58501,0 -33.45154,-6.196 -44.60354,-18.586 -11.09201,-12.39 -16.63673,-29.028 -16.63673,-49.914 0,-20.886 5.54472,-37.526 16.63673,-49.916 4.27989,-4.778 9.11193,-8.628 14.48633,-11.572 l 0,-33.373 z m 30.11721,40.789 c -12.98,0 -23.30463,4.835 -30.97464,14.511 -7.611,9.676 -11.41601,22.864 -11.41601,39.561 0,16.638 3.80501,29.797 11.41601,39.473 7.67001,9.676 17.99464,14.511 30.97464,14.511 12.98001,0 23.2488,-4.835 30.8008,-14.511 7.61101,-9.676 11.41603,-22.835 11.41603,-39.473 0,-16.697 -3.80502,-29.885 -11.41603,-39.561 -7.552,-9.676 -17.82079,-14.511 -30.8008,-14.511 z"
       id="path4259"
       inkscape:connector-curvature="0" />
    <path
       style="color:#000000;clip-rule:nonzero;display:inline;overflow:visible;visibility:visible;opacity:1;isolation:auto;mix-blend-mode:normal;color-interpolation:sRGB;color-interpolation-filters:linearRGB;solid-color:#000000;solid-opacity:1;fill:#3e82ff;fill-opacity:1;fill-rule:evenodd;stroke:none;stroke-width:0;stroke-linecap:butt;stroke-linejoin:miter;stroke-miterlimit:4;stroke-dasharray:none;stroke-dashoffset:0;stroke-opacity:1;color-rendering:auto;image-rendering:auto;shape-rendering:auto;text-rendering:auto;enable-background:accumulate"
       d="m -363.57478,-16369.424 a 99.489709,99.489632 0 0 0 -99.4903,99.49 99.489709,99.489632 0 0 0 99.4903,99.488 99.489709,99.489632 0 0 0 99.48837,-99.488 99.489709,99.489632 0 0 0 -99.48837,-99.49 z m -0.13281,30.945 c 6.19508,0 12.50645,0.561 18.93753,1.682 6.43107,1.121 13.01026,2.803 19.73634,5.045 l 0,17.433 c -6.78509,-3.245 -13.18702,-5.663 -19.20509,-7.256 -6.01808,-1.593 -11.82855,-2.39 -17.43361,-2.39 -9.73512,0 -17.25832,1.888 -22.56838,5.664 -5.25106,3.776 -7.87695,9.145 -7.87695,16.107 0,5.841 1.74161,10.267 5.22265,13.276 3.54004,2.95 10.2059,5.339 20.00001,7.168 l 10.79689,2.212 c 13.33416,2.537 23.1596,7.022 29.47268,13.454 6.37207,6.372 9.55664,14.925 9.55664,25.664 0,12.803 -4.30582,22.509 -12.91992,29.117 -8.5551,6.608 -21.12201,9.912 -37.70121,9.912 -6.25407,0 -12.92189,-0.707 -20.00196,-2.123 -7.02109,-1.416 -14.30731,-3.512 -21.8594,-6.285 l 0,-18.408 c 7.25709,4.071 14.36606,7.14 21.32815,9.205 6.96207,2.065 13.80714,3.097 20.53321,3.097 10.20712,0 18.08286,-2.005 23.62894,-6.017 5.54606,-4.012 8.31836,-9.736 8.31836,-17.17 0,-6.49 -2.00554,-11.565 -6.01758,-15.223 -3.95305,-3.658 -10.47252,-6.401 -19.55862,-8.23 l -10.88477,-2.123 c -13.33416,-2.655 -22.98236,-6.815 -28.94143,-12.479 -5.95906,-5.664 -8.93751,-13.542 -8.93751,-23.631 0,-11.682 4.0997,-20.885 12.30079,-27.611 8.2601,-6.726 19.61907,-10.09 34.07424,-10.09 z"
       id="path4259-7"
       inkscape:connector-curvature="0" />
    <text
       xml:space="preserve"
       style="font-style:normal;font-weight:normal;font-size:12.5px;line-height:125%;font-family:Courier;letter-spacing:0px;word-spacing:0px;fill:#3e82ff;fill-opacity:1;stroke:none;stroke-width:1px;stroke-linecap:butt;stroke-linejoin:miter;stroke-opacity:1"
       x="-464.01535"
       y="-16395.381"
       id="text4295"
       sodipodi:linespacing="125%"><tspan
         sodipodi:role="line"
         id="tspan4297"
         x="-464.01535"
         y="-16395.381"
         style="font-style:normal;font-variant:normal;font-weight:normal;font-stretch:normal;font-size:137.5px;font-family:Courier;-inkscape-font-specification:Courier;fill:#3e82ff;fill-opacity:1">&lt;</tspan></text>
    <text
       xml:space="preserve"
       style="font-style:normal;font-weight:normal;font-size:12.5px;line-height:125%;font-family:Courier;letter-spacing:0px;word-spacing:0px;fill:#3e82ff;fill-opacity:1;stroke:none;stroke-width:1px;stroke-linecap:butt;stroke-linejoin:miter;stroke-opacity:1"
       x="-163.60582"
       y="-15843.551"
       id="text4299"
       sodipodi:linespacing="125%"><tspan
         sodipodi:role="line"
         id="tspan4301"
         x="-163.60582"
         y="-15843.551"
         style="font-style:normal;font-variant:normal;font-weight:normal;font-stretch:normal;font-size:137.5px;font-family:Courier;-inkscape-font-specification:Courier;fill:#3e82ff;fill-opacity:1" /></text>
    <text
       xml:space="preserve"
       style="font-style:normal;font-weight:normal;font-size:12.5px;line-height:125%;font-family:Courier;letter-spacing:0px;word-spacing:0px;fill:#ff900c;fill-opacity:1;stroke:none;stroke-width:1px;stroke-linecap:butt;stroke-linejoin:miter;stroke-opacity:1"
       x="-270.69489"
       y="-16203.209"
       id="text4303"
       sodipodi:linespacing="125%"><tspan
         sodipodi:role="line"
         id="tspan4305"
         x="-270.69489"
         y="-16203.209"
         style="font-style:normal;font-variant:normal;font-weight:normal;font-stretch:normal;font-size:137.5px;font-family:Courier;-inkscape-font-specification:Courier;fill:#3e82ff;fill-opacity:1">/&gt;</tspan></text>
  </g>
</svg>
