<?xml version="1.0" encoding="UTF-8" standalone="no"?>
<!-- Created with Inkscape (http://www.inkscape.org/) -->

<svg
   xmlns:dc="http://purl.org/dc/elements/1.1/"
   xmlns:cc="http://creativecommons.org/ns#"
   xmlns:rdf="http://www.w3.org/1999/02/22-rdf-syntax-ns#"
   xmlns:svg="http://www.w3.org/2000/svg"
   xmlns="http://www.w3.org/2000/svg"
   xmlns:sodipodi="http://sodipodi.sourceforge.net/DTD/sodipodi-0.dtd"
   xmlns:inkscape="http://www.inkscape.org/namespaces/inkscape"
   width="600.00061"
   height="302.28629"
   viewBox="0 0 724.84674 302.28639"
   id="svg2"
   version="1.1"
   inkscape:version="0.91 r13725"
   sodipodi:docname="Logo Fall 2016.svg"
   inkscape:export-filename="/Users/MacNerd/My Programs/Open Source Club/logo/Logo Fall 2016.png"
   inkscape:export-xdpi="200"
   inkscape:export-ydpi="200">
  <defs
     id="defs4">
    <inkscape:perspective
       sodipodi:type="inkscape:persp3d"
       inkscape:vp_x="0 : 3.8250016 : 1"
       inkscape:vp_y="0 : 10.000003 : 0"
       inkscape:vp_z="87167783 : 3.8250016 : 1"
       inkscape:persp3d-origin="43583894 : 2.550001 : 1"
       id="perspective4269" />
  </defs>
  <sodipodi:namedview
     id="base"
     pagecolor="#ffffff"
     bordercolor="#666666"
     borderopacity="0"
     inkscape:pageopacity="0.0"
     inkscape:pageshadow="2"
     inkscape:zoom="1.28"
     inkscape:cx="318.77817"
     inkscape:cy="166.45784"
     inkscape:document-units="px"
     inkscape:current-layer="layer1"
     showgrid="true"
     inkscape:showpageshadow="false"
     inkscape:window-width="1440"
     inkscape:window-height="852"
     inkscape:window-x="0"
     inkscape:window-y="0"
     inkscape:window-maximized="1"
     units="in"
     showguides="false"
     fit-margin-top="0"
     fit-margin-left="0"
     fit-margin-right="0"
     fit-margin-bottom="0">
    <inkscape:grid
       type="xygrid"
       id="grid4257"
       originx="33400200"
       originy="-5.9664949e+08" />
  </sodipodi:namedview>
  <metadata
     id="metadata7">
    <rdf:RDF>
      <cc:Work
         rdf:about="">
        <dc:format>image/svg+xml</dc:format>
        <dc:type
           rdf:resource="http://purl.org/dc/dcmitype/StillImage" />
        <dc:title />
        <cc:license
           rdf:resource="https://creativecommons.org/licenses/by-sa/4.0/" />
      </cc:Work>
    </rdf:RDF>
  </metadata>
  <g
     inkscape:label="Layer 1"
     inkscape:groupmode="layer"
     id="layer1"
     transform="translate(462.06508,16465.184)">
    <text
       xml:space="preserve"
       style="font-style:normal;font-variant:normal;font-weight:normal;font-stretch:normal;font-size:12.5px;line-height:125%;font-family:sans-serif;-inkscape-font-specification:sans-serif;letter-spacing:0px;word-spacing:0px;fill:#000000;fill-opacity:1;stroke:none;stroke-width:1px;stroke-linecap:butt;stroke-linejoin:miter;stroke-opacity:1"
       x="-22.478155"
       y="-16635.521"
       id="text4680"
       sodipodi:linespacing="125%"><tspan
         sodipodi:role="line"
         id="tspan4682"
         x="-22.478155"
         y="-16635.521" /></text>
    <flowRoot
       xml:space="preserve"
       id="flowRoot4236"
       style="font-style:normal;font-weight:normal;font-size:12.5px;line-height:125%;font-family:sans-serif;letter-spacing:0px;word-spacing:0px;fill:#000000;fill-opacity:1;stroke:none;stroke-width:1px;stroke-linecap:butt;stroke-linejoin:miter;stroke-opacity:1"
       transform="translate(1,-491.37714)"><flowRegion
         id="flowRegion4238"><rect
           id="rect4240"
           width="111.59029"
           height="81.759224"
           x="-884.98834"
           y="-16597.785" /></flowRegion><flowPara
         id="flowPara4242" /></flowRoot>    <path
       style="color:#000000;clip-rule:nonzero;display:inline;overflow:visible;visibility:visible;opacity:1;isolation:auto;mix-blend-mode:normal;color-interpolation:sRGB;color-interpolation-filters:linearRGB;solid-color:#000000;solid-opacity:1;fill:#ff900c;fill-opacity:1;fill-rule:evenodd;stroke:#000000;stroke-width:0;stroke-linecap:butt;stroke-linejoin:miter;stroke-miterlimit:4;stroke-dasharray:none;stroke-dashoffset:0;stroke-opacity:1;color-rendering:auto;image-rendering:auto;shape-rendering:auto;text-rendering:auto;enable-background:accumulate"
       d="m -283.27962,-16496.633 a 99.489632,99.48963 0 0 0 -69.46093,94.816 99.489632,99.48963 0 0 0 99.48828,99.49 99.489632,99.48963 0 0 0 99.49023,-99.49 99.489632,99.48963 0 0 0 -69.46094,-94.728 l 0,33.248 c 5.38044,2.948 10.21459,6.81 14.49024,11.609 11.092,12.39 16.63672,29.03 16.63672,49.916 0,20.827 -5.54472,37.465 -16.63672,49.914 -11.092,12.39 -25.90369,18.586 -44.42969,18.586 -18.585,0 -33.45151,-6.196 -44.60351,-18.586 -11.092,-12.39 -16.63672,-29.028 -16.63672,-49.914 0,-20.886 5.54472,-37.526 16.63672,-49.916 4.27989,-4.778 9.11193,-8.628 14.48632,-11.572 l 0,-33.373 z m 30.11719,40.789 c -12.98,0 -23.30461,4.835 -30.97461,14.511 -7.611,9.676 -11.41601,22.864 -11.41601,39.561 0,16.638 3.80501,29.797 11.41601,39.473 7.67,9.676 17.99461,14.511 30.97461,14.511 12.98,0 23.24878,-4.835 30.80078,-14.511 7.611,-9.676 11.41602,-22.835 11.41602,-39.473 0,-16.697 -3.80502,-29.885 -11.41602,-39.561 -7.552,-9.676 -17.82078,-14.511 -30.80078,-14.511 z"
       id="path4259"
       inkscape:connector-curvature="0"
       inkscape:export-filename="/Users/MacNerd/My Programs/Open Source Club/logo/images/test.png"
       inkscape:export-xdpi="200"
       inkscape:export-ydpi="200" />
    <path
       style="color:#000000;clip-rule:nonzero;display:inline;overflow:visible;visibility:visible;opacity:1;isolation:auto;mix-blend-mode:normal;color-interpolation:sRGB;color-interpolation-filters:linearRGB;solid-color:#000000;solid-opacity:1;fill:#3e82ff;fill-opacity:1;fill-rule:evenodd;stroke:none;stroke-width:0;stroke-linecap:butt;stroke-linejoin:miter;stroke-miterlimit:4;stroke-dasharray:none;stroke-dashoffset:0;stroke-opacity:1;color-rendering:auto;image-rendering:auto;shape-rendering:auto;text-rendering:auto;enable-background:accumulate"
       d="m -362.57485,-16330.426 a 99.489632,99.48963 0 0 0 -99.49023,99.49 99.489632,99.48963 0 0 0 99.49023,99.488 99.489632,99.48963 0 0 0 99.48828,-99.488 99.489632,99.48963 0 0 0 -99.48828,-99.49 z m -0.13281,30.945 c 6.19507,0 12.50643,0.561 18.9375,1.682 6.43107,1.121 13.01026,2.803 19.73633,5.045 l 0,17.433 c -6.78508,-3.245 -13.18701,-5.663 -19.20508,-7.256 -6.01807,-1.593 -11.82853,-2.39 -17.43359,-2.39 -9.73511,0 -17.2583,1.888 -22.56836,5.664 -5.25106,3.776 -7.87695,9.145 -7.87695,16.107 0,5.841 1.74161,10.267 5.22265,13.276 3.54004,2.95 10.20589,5.339 20,7.168 l 10.79688,2.212 c 13.33414,2.537 23.15958,7.022 29.47265,13.454 6.37207,6.372 9.55664,14.925 9.55664,25.664 0,12.803 -4.30582,22.509 -12.91992,29.117 -8.55509,6.608 -21.12199,9.912 -37.70117,9.912 -6.25407,0 -12.92188,-0.707 -20.00195,-2.123 -7.02108,-1.416 -14.3073,-3.512 -21.85938,-6.285 l 0,-18.408 c 7.25708,4.071 14.36605,7.14 21.32813,9.205 6.96207,2.065 13.80713,3.097 20.5332,3.097 10.20711,0 18.08284,-2.005 23.62891,-6.017 5.54606,-4.012 8.31836,-9.736 8.31836,-17.17 0,-6.49 -2.00554,-11.565 -6.01758,-15.223 -3.95305,-3.658 -10.4725,-6.401 -19.5586,-8.23 l -10.88476,-2.123 c -13.33415,-2.655 -22.98234,-6.815 -28.94141,-12.479 -5.95906,-5.664 -8.9375,-13.542 -8.9375,-23.631 0,-11.682 4.09969,-20.885 12.30078,-27.611 8.26009,-6.726 19.61906,-10.09 34.07422,-10.09 z"
       id="path4259-7"
       inkscape:connector-curvature="0"
       inkscape:export-filename="/Users/MacNerd/My Programs/Open Source Club/logo/images/test.png"
       inkscape:export-xdpi="200"
       inkscape:export-ydpi="200" />
    <text
       xml:space="preserve"
       style="font-style:normal;font-weight:normal;font-size:12.5px;line-height:125%;font-family:sans-serif;letter-spacing:0px;word-spacing:0px;fill:#3e82ff;fill-opacity:1;stroke:none;stroke-width:1px;stroke-linecap:butt;stroke-linejoin:miter;stroke-opacity:1"
       x="-463.01553"
       y="-16356.376"
       id="text4295"
       sodipodi:linespacing="125%"
       inkscape:export-filename="/Users/MacNerd/My Programs/Open Source Club/logo/images/test.png"
       inkscape:export-xdpi="200"
       inkscape:export-ydpi="200"><tspan
         sodipodi:role="line"
         id="tspan4297"
         x="-463.01553"
         y="-16356.376"
         style="font-style:normal;font-variant:normal;font-weight:normal;font-stretch:normal;font-size:137.5px;font-family:sans-serif;-inkscape-font-specification:sans-serif;fill:#3e82ff;fill-opacity:1">&lt;</tspan></text>
    <text
       xml:space="preserve"
       style="font-style:normal;font-weight:normal;font-size:12.5px;line-height:125%;font-family:sans-serif;letter-spacing:0px;word-spacing:0px;fill:#3e82ff;fill-opacity:1;stroke:none;stroke-width:1px;stroke-linecap:butt;stroke-linejoin:miter;stroke-opacity:1"
       x="-162.60582"
       y="-16334.927"
       id="text4299"
       sodipodi:linespacing="125%"
       inkscape:export-filename="/Users/MacNerd/My Programs/Open Source Club/logo/images/test.png"
       inkscape:export-xdpi="200"
       inkscape:export-ydpi="200"><tspan
         sodipodi:role="line"
         id="tspan4301"
         x="-162.60582"
         y="-16334.927"
         style="font-style:normal;font-variant:normal;font-weight:normal;font-stretch:normal;font-size:137.5px;font-family:sans-serif;-inkscape-font-specification:sans-serif;fill:#3e82ff;fill-opacity:1">pen</tspan></text>
    <text
       xml:space="preserve"
       style="font-style:normal;font-weight:normal;font-size:12.5px;line-height:125%;font-family:sans-serif;letter-spacing:0px;word-spacing:0px;fill:#ff900c;fill-opacity:1;stroke:none;stroke-width:1px;stroke-linecap:butt;stroke-linejoin:miter;stroke-opacity:1"
       x="-269.69513"
       y="-16164.202"
       id="text4303"
       sodipodi:linespacing="125%"
       inkscape:export-filename="/Users/MacNerd/My Programs/Open Source Club/logo/images/test.png"
       inkscape:export-xdpi="200"
       inkscape:export-ydpi="200"><tspan
         sodipodi:role="line"
         id="tspan4305"
         x="-269.69513"
         y="-16164.202"
         style="font-style:normal;font-variant:normal;font-weight:normal;font-stretch:normal;font-size:137.5px;font-family:sans-serif;-inkscape-font-specification:sans-serif;fill:#ff900c;fill-opacity:1;letter-spacing:0px">ource<tspan
   style="font-style:normal;font-variant:normal;font-weight:normal;font-stretch:normal;font-family:sans-serif;-inkscape-font-specification:sans-serif;fill:#3e82ff;fill-opacity:1;letter-spacing:0px"
   id="tspan4307">/&gt;</tspan></tspan></text>
    <text
       xml:space="preserve"
       style="font-style:normal;font-weight:normal;font-size:48.32306671px;line-height:125%;font-family:sans-serif;letter-spacing:0px;word-spacing:0px;fill:#000000;fill-opacity:1;stroke:none;stroke-width:1px;stroke-linecap:butt;stroke-linejoin:miter;stroke-opacity:1"
       x="-489.34418"
       y="-16598.318"
       id="text4150"
       sodipodi:linespacing="125%"><tspan
         sodipodi:role="line"
         id="tspan4152"
         x="-489.34418"
         y="-16598.318"></tspan></text>
  </g>
</svg>
